The Marine (2006) | m-HD | 480p | AC3 | Hindi | BHATTI87

General
Unique ID                       : 199579615954252455593524263535507460490 (0x9625A2C815D88FA9B4D2576EA3A0D18A)
Complete name                   :Marine (2006)  m-HD  480p  AC3  Hindi  BHATTI87\\\\The Marine (2006)  m-HD  480p  AC3  Hindi  BHATTI87.mkv
Format                          : Matroska
File size                       : 495 MiB
Duration                        : 1h 27mn
Overall bit rate                : 786 Kbps
Encoded date                    : UTC 2011-09-12 14:24:04
Writing application             : mkvmerge v4.9.1 (\\\'Ich will\\\') built on Jul 11 2011 23:53:15
Writing library                 : libebml v1.2.1 + libmatroska v1.1.1

Video
ID                              : 1
Format                          : AVC
Format/Info                     : Advanced Video Codec
Format profile                  : High@L3.1
Format settings, CABAC          : Yes
Format settings, ReFrames       : 5 frames
Codec ID                        : V_MPEG4/ISO/AVC
Duration                        : 1h 27mn
Bit rate                        : 657 Kbps
Width                           : 848 pixels
Height                          : 368 pixels
Display aspect ratio            : 2.35:1
Frame rate                      : 23.976 fps
Color space                     : YUV
Chroma subsampling              : 4:2:0
Bit depth                       : 8 bits
Scan type                       : Progressive
Bits/(Pixel*Frame)              : 0.088
Stream size                     : 404 MiB (82%)
Writing library                 : x264 core 116 r2074 2641b9e


Audio
ID                              : 2
Format                          : AC-3
Format/Info                     : Audio Coding 3
Mode extension                  : CM (complete main)
Codec ID                        : A_AC3
Duration                        : 1h 27mn
Bit rate mode                   : Constant
Bit rate                        : 128 Kbps
Channel(s)                      : 2 channels
Channel positions               : Front: L R
Sampling rate                   : 44.1 KHz
Bit depth                       : 16 bits
Compression mode                : Lossy
Delay relative to video         : 12ms
Stream size                     : 80.5 MiB (16%)
